<?xml version="1.0" standalone="no"?><!DOCTYPE svg PUBLIC "-//W3C//DTD SVG 1.1//EN" "http://www.w3.org/Graphics/SVG/1.1/DTD/svg11.dtd"><svg t="1671523516305" class="icon" viewBox="0 0 1024 1024" version="1.1" xmlns="http://www.w3.org/2000/svg" p-id="3774" xmlns:xlink="http://www.w3.org/1999/xlink" width="200" height="200"><path d="M514.677978 943.684783a436.273148 436.273148 0 0 0 411.332806-290.141756 434.590955 434.590955 0 0 0-137.062176-483.593974 437.223953 437.223953 0 0 0-502.756349-32.327365 434.810371 434.810371 0 0 0-198.206241 462.018018c16.895071 79.282497 8.484105 196.304632-13.311268 294.822641a45.346077 45.346077 0 0 0 44.614689 56.390042c0.511972 0 9.361771-1.462777 9.361771-1.462777 102.174952-20.186318 229.509663-34.082697 293.359865-15.505433 30.279477 7.606439 61.436621 10.970825 92.666903 9.800604z m-113.072638 60.412677c-42.127969-12.214185-148.179279-4.827163-261.178778 17.553321l-4.827163 0.731388c-2.559859 0.511972-2.559859 0.511972-15.65171 1.609054a118.63119 118.63119 0 0 1-116.656441-145.326864c21.210262-95.811873 26.695675-200.400407 13.16499-263.665498a507.949206 507.949206 0 0 1 231.484411-539.764599 510.362787 510.362787 0 0 1 586.866008 37.739639 507.729789 507.729789 0 0 1 160.174048 564.997496 509.411982 509.411982 0 0 1-479.059366 338.852221 409.284918 409.284918 0 0 1-114.315999-12.726158zM622.630898 585.158216v-57.413985a36.569417 36.569417 0 0 1 51.928573-33.205031l151.689942 93.032598a36.569417 36.569417 0 0 1-13.16499 70.725253H703.741866l-44.468412 0.438833A36.861973 36.861973 0 0 1 653.568625 658.297051H256.132198a36.569417 36.569417 0 1 1 0-73.138835h366.425561zM255.693365 438.880547A36.42314 36.42314 0 0 1 219.416504 402.31113c0-20.186318 16.236821-36.569417 36.276861-36.569417h146.86278c20.040041 0 36.276862 16.383099 36.276862 36.569417s-16.236821 36.569417-36.276862 36.569417H255.693365z m266.956746-10.67827a36.569417 36.569417 0 1 1 51.782295-51.782294 36.569417 36.569417 0 0 1-51.782295 51.782294z" fill="#000000" p-id="3775"></path></svg>